<svg width="16" height="14" viewBox="0 0 16 14" fill="none" xmlns="http://www.w3.org/2000/svg">
<path d="M4.34918 7.29251V6.14793C2.41274 5.95073 0.842688 5.27527 0 4.35288V4.59178C0 5.88687 1.84892 7.02255 4.34918 7.29251ZM4.34918 7.97405C2.41469 7.77858 0.84486 7.09943 0 6.17704V6.41811C0 7.71494 1.84892 8.84844 4.34918 9.12145V8.57848H4.35309C4.35114 8.54264 4.34918 8.50876 4.34918 8.47293V7.97405ZM10.5132 11.9175C8.09046 11.9175 6.03912 11.1743 5.02637 10.0666V10.3016C5.02637 11.802 7.53858 13.0669 10.5132 13.0669C13.4878 13.0669 16 11.802 16 10.3016V10.0666C14.9857 11.1743 12.9337 11.9175 10.5132 11.9175ZM10.5132 10.0886C8.09046 10.0886 6.03912 9.34754 5.02637 8.23988V8.47488C5.02637 9.97348 7.53858 11.2401 10.5132 11.2401C13.4878 11.2401 16 9.97304 16 8.47488V8.23988C14.9857 9.34754 12.9337 10.0886 10.5132 10.0886ZM10.5132 8.2616C8.09046 8.2616 6.03912 7.5186 5.02637 6.41095V6.6479C5.02637 8.14649 7.53858 9.41118 10.5132 9.41118C13.4878 9.41118 16 8.14606 16 6.6479V6.41095C14.9857 7.5186 12.9337 8.2616 10.5132 8.2616ZM10.5132 6.43484C8.09046 6.43484 6.03912 5.69162 5.02637 4.58396V4.81918C5.02637 6.31777 7.53858 7.58441 10.5132 7.58441C13.4878 7.58441 16 6.31734 16 4.81918V4.58396C14.9857 5.69162 12.9337 6.43484 10.5132 6.43484ZM5.02637 2.9922C5.02637 4.49079 7.53858 5.75743 10.5132 5.75743C13.4878 5.75743 16 4.49079 16 2.9922C16 1.4936 13.4856 0.226963 10.5132 0.226963C7.54076 0.226963 5.02637 1.4936 5.02637 2.9922ZM4.34918 2.9922C4.34918 1.77899 5.41688 0.733444 7.06859 0.121409C6.54517 0.0403149 6.01626 -0.000274881 5.4866 1.40091e-06C2.51221 1.40091e-06 0 1.2649 0 2.76306C0 4.04208 1.8828 5.19361 4.34918 5.46662V4.91865H4.35309C4.35114 4.88477 4.34918 4.85349 4.34918 4.81918V2.9922Z" fill="#B7BDCD"/>
</svg>
