<svg width="32" height="32" viewBox="0 0 32 32" fill="none" xmlns="http://www.w3.org/2000/svg">
<circle cx="16" cy="16" r="16" fill="url(#paint0_linear)"/>
<path d="M16.384 21.192C18.736 21.192 20.144 19.784 20.144 18.088C20.144 16.568 19.264 15.784 18.032 15.256L16.608 14.664C15.744 14.312 14.944 14.008 14.944 13.192C14.944 12.424 15.6 11.96 16.592 11.96C17.488 11.96 18.192 12.296 18.864 12.856L19.808 11.672C18.992 10.856 17.808 10.344 16.592 10.344C14.544 10.344 13.072 11.624 13.072 13.288C13.072 14.824 14.16 15.64 15.184 16.072L16.624 16.696C17.568 17.096 18.24 17.368 18.24 18.232C18.24 19.048 17.6 19.576 16.416 19.576C15.456 19.576 14.448 19.096 13.696 18.392L12.608 19.656C13.6 20.632 14.976 21.192 16.384 21.192Z" fill="white"/>
<defs>
<linearGradient id="paint0_linear" x1="16" y1="0" x2="16" y2="32" gradientUnits="userSpaceOnUse">
<stop stop-color="#13244E"/>
<stop offset="1" stop-color="#75C5F0"/>
</linearGradient>
</defs>
</svg>
